<svg id="Layer_1" data-name="Layer 1" xmlns="http://www.w3.org/2000/svg" viewBox="0 0 16 16"><defs><style>.cls-1{fill:#fff;}</style></defs><title>Alert</title><path style="fill:#393939;" id="path1" class="cls-1" d="M6.58,13.89v0a.74.74,0,0,0,0,.15A1.06,1.06,0,0,0,7.71,15a1.06,1.06,0,0,0,1.16-.93.74.74,0,0,0,0-.16v0H8.77c-.35,0-.7,0-1.06,0s-.7,0-1,0ZM7.72,1A2.5,2.5,0,0,0,5.26,3.53v.53a8.21,8.21,0,0,1-2.84,6.41.61.61,0,0,0-.16.5,1.15,1.15,0,0,0,.48.81,9.51,9.51,0,0,0,5,1.15,9.39,9.39,0,0,0,5-1.18,1.06,1.06,0,0,0,.43-.76.68.68,0,0,0-.18-.55,8.57,8.57,0,0,1-2.8-6.39V3.53A2.5,2.5,0,0,0,7.72,1Zm0-1a3.5,3.5,0,0,1,3.46,3.53v.53a7.54,7.54,0,0,0,2.51,5.68,1.66,1.66,0,0,1,.47,1.34,2.06,2.06,0,0,1-.85,1.49A8.1,8.1,0,0,1,10,13.76l-.13,0v0a1.73,1.73,0,0,1,0,.25A2.06,2.06,0,0,1,7.71,16a2.06,2.06,0,0,1-2.16-1.93,1.73,1.73,0,0,1,0-.23v-.07h-.1a8.24,8.24,0,0,1-3.3-1.16,2.16,2.16,0,0,1-.91-1.55,1.6,1.6,0,0,1,.45-1.3,7.13,7.13,0,0,0,2.55-5.7V3.44a.56.56,0,0,1,0-.06A3.5,3.5,0,0,1,7.72,0Z"/></svg>