<svg id="Layer_4" data-name="Layer 4" xmlns="http://www.w3.org/2000/svg" viewBox="0 0 16 16"><defs><style>.cls-1{fill:#5db4db;}</style></defs><title>Callcentr</title><path id="path1" class="cls-1" d="M13,13v2h1.5V13Zm-2.5,0v2h2V13ZM8,13v2h2V13ZM6,13v2H7.5V13Zm4.5-2v1.5h4V11ZM6,11v1.5h4V11Zm4.5-2v1.5h4V9ZM6,9v1.5h4V9Zm4.5-2V8.5h4V7ZM6,7V8.5h4V7Zm4.5-2V6.5h4V5ZM6,5V6.5h4V5Zm4.5-2V4.5h4V3ZM6,3V4.5h4V3ZM1.5,1V15H5V1ZM1,0H5.5A.5.5,0,0,1,6,.5V2h9a.5.5,0,0,1,.5.5V15H16v1H0V15H.5V.5A.5.5,0,0,1,1,0Z" transform="translate(0 0)"/></svg>