<svg id="Layer_1" data-name="Layer 1" xmlns="http://www.w3.org/2000/svg" viewBox="0 0 44.8 30.31"><defs><style>.cls-1{fill:#fff;}</style></defs><title>Costco telecom logo</title><path id="path1" class="cls-1" d="M5.44,8a29.51,29.51,0,0,1,9.65,2.05,15.23,15.23,0,0,0-3.53,3.28,22.17,22.17,0,0,0-6-1.1,7.22,7.22,0,0,0-.75,0c.65,1.63,3,4.86,7.55,8.65l.11.09-.35-.32A12.24,12.24,0,1,1,33.51,32.36l-.28.38.36.12A22.91,22.91,0,0,0,40,34.09a7.16,7.16,0,0,0,.74,0A18.58,18.58,0,0,0,37.06,29a14.9,14.9,0,0,0,1.32-4.66c5.26,5,7.91,9.61,6.36,12.16-2.42,4-14.22,1.27-26.35-6.09S-1.59,13.84.83,9.85C1.57,8.62,3.2,8,5.44,8Z" transform="translate(-0.39 -8.02)"/></svg>