<svg id="Settings" xmlns="http://www.w3.org/2000/svg" viewBox="0 0 15.91 15.91"><defs><style>.cls-1{fill:#fff;}</style></defs><title>Settings</title><path style="fill:#393939;" class="cls-1" d="M13.93,7.72s0,.09,0,.14,0,.09,0,.14,0,.09,0,.14,0,.09,0,.14l2,1.26-1.24,3L12.39,12c-.12.14-.26.27-.39.39l.53,2.32L9.54,16l-1.26-2H7.72L6.46,16l-3-1.24L4,12.39q-.2-.19-.39-.39l-2.32.53L0,9.54l2-1.26s0-.09,0-.14,0-.09,0-.14,0-.09,0-.14,0-.09,0-.14L0,6.46l1.24-3L3.61,4q.19-.2.39-.39L3.47,1.29,6.46,0l1.26,2h.56L9.54,0l3,1.24L12,3.61c.13.13.27.26.39.39l2.32-.53,1.24,3Zm-.91,1,0-.37c0-.12,0-.25,0-.37s0-.24,0-.37l0-.37,1.84-1.15-.67-1.62L12.07,5a7.06,7.06,0,0,0-.5-.55q-.25-.25-.55-.5l.49-2.12L9.89,1.14,8.73,3,8.37,3,8,2.94,7.63,3,7.26,3,6.11,1.14l-1.62.67L5,3.93a6.8,6.8,0,0,0-.55.5q-.25.25-.5.55L1.81,4.48,1.14,6.11,3,7.27l0,.37c0,.12,0,.25,0,.37s0,.24,0,.37l0,.37L1.14,9.89l.67,1.63L3.93,11a6.54,6.54,0,0,0,.5.55q.25.25.55.5l-.49,2.12,1.63.67L7.27,13l.37,0,.37,0,.37,0,.37,0,1.15,1.84,1.63-.67L11,12.07a6.77,6.77,0,0,0,.55-.5q.25-.25.5-.55l2.12.49.67-1.62ZM8,5.06a2.87,2.87,0,0,1,1.14.23,2.94,2.94,0,0,1,1.56,1.56,3,3,0,0,1,0,2.29,2.94,2.94,0,0,1-1.56,1.56,3,3,0,0,1-2.29,0A2.94,2.94,0,0,1,5.29,9.14a3,3,0,0,1,0-2.29A2.94,2.94,0,0,1,6.86,5.29,2.87,2.87,0,0,1,8,5.06Zm0,5a2,2,0,0,0,.8-.16,2.06,2.06,0,0,0,1.1-1.1,2.1,2.1,0,0,0,0-1.61A2.06,2.06,0,0,0,8.8,6.1a2.1,2.1,0,0,0-1.61,0A2.06,2.06,0,0,0,6.1,7.2a2.1,2.1,0,0,0,0,1.61A2.06,2.06,0,0,0,7.2,9.9,2,2,0,0,0,8,10.06Z" transform="translate(-0.05 -0.05)"/></svg>