<svg id="user" xmlns="http://www.w3.org/2000/svg" viewBox="0 0 16 16"><defs><style>.cls-1{fill:#fff;}</style></defs><title>User</title><path id="path1" class="cls-1" d="M8,1A3.32,3.32,0,0,0,4.75,4.37,3.32,3.32,0,0,0,8,7.74a3.32,3.32,0,0,0,3.25-3.37A3.32,3.32,0,0,0,8,1ZM8,0a4.32,4.32,0,0,1,4.25,4.37A4.41,4.41,0,0,1,10.37,8l-.13.08.13,0A8.23,8.23,0,0,1,16,16H15A7.13,7.13,0,0,0,8,8.75,7.13,7.13,0,0,0,1,16H0A8.23,8.23,0,0,1,5.62,8.12l.13,0L5.63,8A4.41,4.41,0,0,1,3.75,4.37,4.32,4.32,0,0,1,8,0Z" transform="translate(0)"/></svg>